<svg width="21" height="19" fill="none" xmlns="http://www.w3.org/2000/svg"><path d="M18.512 2c.938.807 1.563 1.77 1.875 2.89.313 1.094.326 2.15.04 3.165a6.084 6.084 0 01-1.485 2.617l-6.836 6.953a2.028 2.028 0 01-1.485.625 2.028 2.028 0 01-1.484-.625l-6.836-6.953A6.084 6.084 0 01.817 8.055C.53 7.013.543 5.945.856 4.852 1.168 3.758 1.793 2.807 2.73 2 3.85 1.063 5.166.659 6.676.79c1.537.103 2.852.702 3.945 1.796C11.715 1.492 13.017.893 14.528.789c1.536-.13 2.864.274 3.984 1.211zm-.898 7.344c.755-.781 1.133-1.732 1.133-2.852 0-1.146-.47-2.161-1.407-3.047-.781-.625-1.692-.898-2.734-.82-1.016.078-1.888.495-2.617 1.25L10.62 5.242 9.255 3.875a3.992 3.992 0 00-2.656-1.25c-1.016-.078-1.914.195-2.695.82-.938.886-1.406 1.901-1.406 3.047 0 1.12.377 2.07 1.132 2.852l6.875 6.953c.079.104.157.104.235 0l6.875-6.953z" fill="#000"/></svg>