<svg width="24" height="20" fill="none" xmlns="http://www.w3.org/2000/svg"><path d="M23.5 6.975h-3.038L15.095.463a.98.98 0 00-1.41-.117 1.054 1.054 0 00-.114 1.453l4.267 5.176H6.162l4.267-5.176a1.054 1.054 0 00-.115-1.454.98.98 0 00-1.41.118L3.539 6.975H.5c-.276 0-.5.23-.5.516v1.03c0 .286.224.517.5.517h.778l1.15 8.533c.136 1.02.982 1.779 1.98 1.779h15.184c.998 0 1.844-.76 1.98-1.779l1.15-8.533h.778c.276 0 .5-.231.5-.516V7.49a.508.508 0 00-.5-.516zm-3.908 10.313H4.408l-1.111-8.25h17.406l-1.111 8.25zM13 11.444v3.437c0 .57-.448 1.031-1 1.031s-1-.461-1-1.03v-3.438c0-.57.448-1.032 1-1.032s1 .462 1 1.032zm4.667 0v3.437c0 .57-.448 1.031-1 1.031-.553 0-1-.461-1-1.03v-3.438c0-.57.447-1.032 1-1.032.552 0 1 .462 1 1.032zm-9.334 0v3.437c0 .57-.447 1.031-1 1.031-.552 0-1-.461-1-1.03v-3.438c0-.57.448-1.032 1-1.032.553 0 1 .462 1 1.032z" fill="#000"/></svg>