<svg width="21" height="20" fill="none" xmlns="http://www.w3.org/2000/svg"><path d="M.75 4.188A.872.872 0 01.187 4 .872.872 0 010 3.437V1.563c0-.22.063-.391.188-.516A.767.767 0 01.75.813h19.5c.219 0 .39.078.516.234a.624.624 0 01.234.516v1.875a.767.767 0 01-.234.562c-.125.125-.297.188-.516.188H.75zm0 7.5a.872.872 0 01-.563-.188.872.872 0 01-.187-.563V9.063c0-.22.063-.391.188-.516a.767.767 0 01.562-.235h19.5c.219 0 .39.079.516.235a.624.624 0 01.234.515v1.876a.767.767 0 01-.234.562c-.125.125-.297.188-.516.188H.75zm0 7.5A.872.872 0 01.187 19 .872.872 0 010 18.437v-1.875c0-.218.063-.39.188-.515a.767.767 0 01.562-.235h19.5c.219 0 .39.079.516.235a.624.624 0 01.234.515v1.875a.767.767 0 01-.234.563c-.125.125-.297.188-.516.188H.75z" fill="#E30000"/></svg>