<svg width="16" height="13" viewBox="0 0 16 13" fill="none" xmlns="http://www.w3.org/2000/svg">
<path d="M5.4375 12.1415L0.21875 6.95398C0.0729167 6.80815 0 6.62065 0 6.39148C0 6.16231 0.0729167 5.97481 0.21875 5.82898L1.375 4.70398C1.52083 4.53731 1.69792 4.45398 1.90625 4.45398C2.13542 4.45398 2.33333 4.53731 2.5 4.70398L6 8.20398L13.5 0.703979C13.6667 0.537313 13.8542 0.453979 14.0625 0.453979C14.2917 0.453979 14.4792 0.537313 14.625 0.703979L15.7812 1.82898C15.9271 1.97481 16 2.16231 16 2.39148C16 2.62065 15.9271 2.80815 15.7812 2.95398L6.5625 12.1415C6.41667 12.3081 6.22917 12.3915 6 12.3915C5.77083 12.3915 5.58333 12.3081 5.4375 12.1415Z" fill="#E30000"/>
</svg>
