<svg width="1548" height="2521" viewBox="0 0 1548 2521" fill="none" xmlns="http://www.w3.org/2000/svg">
<path d="M17.5 2058.5C26.6127 2058.5 34 2051.11 34 2042C34 2032.89 26.6127 2025.5 17.5 2025.5C8.3873 2025.5 1 2032.89 1 2042C1 2051.11 8.38732 2058.5 17.5 2058.5Z" fill="#F8F8F8"/>
<path d="M508.5 2177V2172.5V2168H566.5V2172.5V2177H508.5Z" fill="#F8F8F8"/>
<path d="M22 408.5H13L13 350.5H22L22 408.5Z" fill="#F8F8F8"/>
<path d="M915 1287C915 1296.39 907.389 1304 898 1304C888.611 1304 881 1296.39 881 1287C881 1277.61 888.611 1270 898 1270C907.389 1270 915 1277.61 915 1287Z" fill="#F8F8F8"/>
<path d="M17.5 1V127.5M17.5 127.5H55.5M17.5 127.5C17.5 167.089 17.5 314.263 17.5 349M63 111.5V144.5M72 121V134.5M78.5 127.5H129.5M1524.5 978.11L1532.4 970.565C1534.38 968.678 1535.5 966.064 1535.5 963.331V732H535.5M1546.5 978.11L1538.13 987.243C1536.44 989.087 1535.5 991.498 1535.5 994V1277C1535.5 1282.52 1531.02 1287 1525.5 1287C1282.53 1287 1104.69 1287 915 1287M279.5 1287C499.831 1287 708.923 1287 881 1287M53 722.5H46C46 722.5 48.5 708 64 708C79.5 708 82 722.5 82 722.5H75M53 722.5V732.5H17.5C17.5 561.13 17.5 550.37 17.5 409M53 722.5H75M75 722.5C75 726.405 75 732.5 75 732.5H129.5M129.5 1286.75H17.5V1639.5L17.5 1668M129.5 2172.5C72.0033 2172.5 80.2089 2172.5 17.5 2172.5C17.5 2044.89 17.5 2158.79 17.5 2058.5M301 2172.5C441.082 2172.5 488.03 2172.5 508.5 2172.5M881 1287C881 1296.39 888.611 1304 898 1304C907.389 1304 915 1296.39 915 1287M881 1287C881 1277.61 888.611 1270 898 1270C907.389 1270 915 1277.61 915 1287M892.5 1281.25L903.5 1292.75M903.5 1281.25L898 1287L892.5 1292.75M17.5 1816.5C17.5 1894.43 17.5 1962.23 17.5 2024.5M17.5 1691V1831M1.50003 1683.5H34.5M11 1674.5H24.5M17.5 2058.5C26.6127 2058.5 34 2051.11 34 2042C34 2032.89 26.6127 2025.5 17.5 2025.5C8.3873 2025.5 1 2032.89 1 2042C1 2051.11 8.38732 2058.5 17.5 2058.5ZM11 2038.5L17.5 2047L23.5 2038.5M775.5 2519.5C775.5 2504.68 775.5 2493.03 775.5 2172.5C646.999 2172.5 602.11 2172.5 566.5 2172.5M508.5 2172.5V2177H566.5V2172.5M508.5 2172.5V2168H566.5V2172.5M22 408.5H13L13 350.5H22L22 408.5Z" stroke="#DDDDDD" stroke-width="2" stroke-linecap="square"/>
</svg>
