<svg width="85" height="84" fill="none" xmlns="http://www.w3.org/2000/svg"><path d="M84.948 32.953H70.852v4.042h14.096v-4.042zm0 13.859H70.852v4.042h14.096v-4.042zm0 13.848H70.852v4.04h14.096v-4.04zm0-41.554H70.852v4.042h14.096v-4.042zM14.096 32.953H0v4.042h14.096v-4.042zm0 13.859H0v4.042h14.096v-4.042zm0 13.848H0v4.04h14.096v-4.04zm0-41.554H0v4.042h14.096v-4.042zm37.421 50.75H47.42v13.916h4.097V69.856zm-14.049 0h-4.097v13.916h4.097V69.856zm28.088 0H61.46v13.916h4.097V69.856zM51.517 0H47.42v13.905h4.097V0zM37.468 0h-4.097v13.905h4.097V0zM23.431 0h-4.097v13.905h4.097V0zm42.125 0H61.46v13.905h4.097V0z" fill="#E30000"/><path d="M19.334 19.072v64.551h4.027V64.666h42.195V19.072H19.334zm39.343 3.984L42.439 39.039 26.213 22.964l32.464.092zM23.36 60.694V25.869l19.078 18.83 19.078-18.83v34.825H23.36z" fill="#fff"/></svg>