<svg width="19" height="20" viewBox="0 0 19 20" fill="none" xmlns="http://www.w3.org/2000/svg">
<path d="M15.0804 0.789551H3.81458C1.85767 0.789551 0.265625 2.38123 0.265625 4.33814V8.08675V15.6043C0.265625 17.5613 1.85767 19.1529 3.81458 19.1529H15.0808C17.0377 19.1529 18.6294 17.5613 18.6294 15.6043V8.08638V4.33777C18.629 2.38086 17.0373 0.789551 15.0804 0.789551ZM16.0983 2.90574L16.5043 2.90426V3.30838V6.01686L13.4021 6.02686L13.3913 2.91463L16.0983 2.90574ZM6.82644 8.08638C7.41466 7.27257 8.36885 6.7388 9.4475 6.7388C10.5262 6.7388 11.4803 7.27257 12.0678 8.08638C12.4505 8.61755 12.6798 9.26726 12.6798 9.97106C12.6798 11.7531 11.2285 13.2029 9.44713 13.2029C7.66469 13.2029 6.21488 11.7531 6.21488 9.97106C6.21525 9.26726 6.4438 8.61755 6.82644 8.08638ZM16.8399 15.604C16.8399 16.5748 16.0505 17.3634 15.0804 17.3634H3.81458C2.84409 17.3634 2.05473 16.5748 2.05473 15.604V8.08638H4.79581C4.55912 8.66867 4.42614 9.30468 4.42614 9.97106C4.42614 12.7392 6.67827 14.9928 9.4475 14.9928C12.2164 14.9928 14.4685 12.7392 14.4685 9.97106C14.4685 9.30468 14.3348 8.66867 14.0981 8.08638H16.8399V15.604Z" fill="#E30000"/>
</svg>
