<svg width="16" height="21" viewBox="0 0 16 21" fill="none" xmlns="http://www.w3.org/2000/svg">
<path d="M7.35417 20.1094C6.72917 19.1979 6.01302 18.1693 5.20573 17.0234C4.42448 15.8776 3.86458 15.0703 3.52604 14.6016C3.1875 14.1328 2.79687 13.5599 2.35417 12.8828C1.91146 12.1797 1.61198 11.6849 1.45573 11.3984C1.32552 11.112 1.16927 10.7474 0.986979 10.3047C0.830729 9.86198 0.726562 9.48438 0.674479 9.17188C0.648437 8.83333 0.635416 8.44271 0.635416 8C0.635416 5.91667 1.36458 4.14583 2.82292 2.6875C4.28125 1.22917 6.05208 0.5 8.13542 0.5C10.2187 0.5 11.9896 1.22917 13.4479 2.6875C14.9062 4.14583 15.6354 5.91667 15.6354 8C15.6354 8.44271 15.6094 8.83333 15.5573 9.17188C15.5312 9.48438 15.4271 9.86198 15.2448 10.3047C15.0885 10.7474 14.9323 11.112 14.776 11.3984C14.6458 11.6849 14.3594 12.1797 13.9167 12.8828C13.474 13.5599 13.0833 14.1328 12.7448 14.6016C12.4062 15.0703 11.8333 15.8776 11.026 17.0234C10.2448 18.1693 9.54167 19.1979 8.91667 20.1094C8.73437 20.3698 8.47396 20.5 8.13542 20.5C7.79687 20.5 7.53646 20.3698 7.35417 20.1094ZM5.90885 10.2266C6.53385 10.8255 7.27604 11.125 8.13542 11.125C8.99479 11.125 9.72396 10.8255 10.3229 10.2266C10.9479 9.60156 11.2604 8.85938 11.2604 8C11.2604 7.14062 10.9479 6.41146 10.3229 5.8125C9.72396 5.1875 8.99479 4.875 8.13542 4.875C7.27604 4.875 6.53385 5.1875 5.90885 5.8125C5.3099 6.41146 5.01042 7.14062 5.01042 8C5.01042 8.85938 5.3099 9.60156 5.90885 10.2266Z" fill="#E30000"/>
</svg>
