<svg width="34" height="46" viewBox="0 0 34 46" fill="none" xmlns="http://www.w3.org/2000/svg">
<path d="M15.1191 44.7456C15.9102 45.976 17.7559 45.976 18.5469 44.7456C31.3789 26.2885 33.752 24.3549 33.752 17.4995C33.752 8.18307 26.1934 0.624481 16.877 0.624481C7.47266 0.624481 0.00195312 8.18307 0.00195312 17.4995C0.00195312 24.3549 2.28711 26.2885 15.1191 44.7456ZM16.877 24.5307C12.9219 24.5307 9.8457 21.4546 9.8457 17.4995C9.8457 13.6323 12.9219 10.4682 16.877 10.4682C20.7441 10.4682 23.9082 13.6323 23.9082 17.4995C23.9082 21.4546 20.7441 24.5307 16.877 24.5307Z" fill="#E30000"/>
</svg>
