<svg width="17" height="22" fill="none" xmlns="http://www.w3.org/2000/svg"><path d="M7.674 20.639h0a1 1 0 001.652 0h0a532.045 532.045 0 012.592-3.748c1.322-1.9 2.236-3.213 2.858-4.256.484-.812.794-1.464.982-2.105.189-.642.255-1.27.255-2.03C16.012 4.317 12.65.925 8.5.925S.987 4.317.987 8.5c0 .76.066 1.388.255 2.03.188.641.498 1.293.982 2.105.622 1.043 1.536 2.356 2.858 4.256.733 1.052 1.59 2.283 2.592 3.748zM8.5 4.675c-2.093 0-3.794 1.716-3.794 3.825s1.701 3.825 3.794 3.825 3.794-1.716 3.794-3.825S10.593 4.675 8.5 4.675zm0 6.25c-1.325 0-2.404-1.087-2.404-2.425 0-1.338 1.079-2.425 2.404-2.425s2.404 1.087 2.404 2.425c0 1.338-1.079 2.425-2.404 2.425zm2.353 5.055a553.22 553.22 0 00-2.353 3.4c-.91-1.327-1.689-2.445-2.353-3.4-1.278-1.838-2.135-3.07-2.705-4.018-.436-.725-.701-1.28-.858-1.806-.157-.527-.207-1.03-.207-1.656 0-1.65.637-3.2 1.794-4.367A6.056 6.056 0 018.5 2.325a6.06 6.06 0 014.33 1.808A6.16 6.16 0 0114.622 8.5c0 .625-.05 1.129-.207 1.655-.157.528-.422 1.082-.858 1.806-.57.949-1.427 2.181-2.705 4.019z" fill="#000" stroke="#000" stroke-width=".15"/></svg>