<svg width="226" height="86" fill="none" xmlns="http://www.w3.org/2000/svg"><g clip-path="url(#clip0)"><path d="M111.616 32.747h-4.784v4.719h-4.109V19.094h8.893c4.655 0 7.705 3.009 7.705 6.81 0 3.8-3.05 6.843-7.705 6.843zm0-9.967h-4.784v6.292h4.784a3.383 3.383 0 002.49-.81c.338-.294.613-.653.807-1.054.194-.401.304-.837.323-1.282a3.292 3.292 0 00-1.133-2.331 3.393 3.393 0 00-2.487-.815zm14.514-3.685h9.207l4.412 17.911h-4.144l-.908-3.708h-7.915l-.908 3.708h-4.155l4.411-17.912zm1.56 10.62h6.099l-1.687-7.038h-2.724l-1.688 7.038zm19.357 7.291v2.951h-4.016v-6.533h1.944l3.492-14.33h9.207l3.492 14.33h1.944v6.533h-3.992v-2.95h-12.071zm4.656-14.33l-2.584 10.748h7.903l-2.595-10.747h-2.724zm19.998 14.33h-4.412V19.094h4.027v11.482h.257l7.263-11.482h4.411v17.912h-3.992V25.524h-.268l-7.286 11.482zm25.874.77a9.95 9.95 0 01-5.442-1.7 9.75 9.75 0 01-3.575-4.39 9.597 9.597 0 01-.509-5.61 9.694 9.694 0 012.727-4.946 9.905 9.905 0 015.05-2.626 9.986 9.986 0 015.679.574 9.832 9.832 0 014.404 3.583 9.636 9.636 0 011.653 5.39 9.644 9.644 0 01-.769 3.747 9.742 9.742 0 01-2.171 3.167 9.886 9.886 0 01-3.239 2.1 10 10 0 01-3.808.71zm0-3.583a6.291 6.291 0 003.526-.91 6.166 6.166 0 002.406-2.702 6.062 6.062 0 00.461-3.567 6.122 6.122 0 00-1.642-3.21 6.254 6.254 0 00-3.183-1.753 6.307 6.307 0 00-3.632.304 6.217 6.217 0 00-2.838 2.258 6.086 6.086 0 00-1.07 3.438 5.949 5.949 0 001.692 4.295 6.095 6.095 0 001.953 1.344 6.162 6.162 0 002.327.503zm-90.581 18.119h-.256v12.4h-4.015v-17.9h4.365l5.447 6.648 5.436-6.648h4.411v17.9h-4.015v-12.4h-.256l-5.576 6.774-5.541-6.774zm24.699-5.5h9.207l4.4 17.9h-4.144l-.908-3.708h-7.903l-.908 3.708h-4.144l4.4-17.9zm1.56 10.598h6.087l-1.676-7.039h-2.724l-1.687 7.039zm36.688-7.016v-3.582h15.423v3.582h-5.703v14.318h-4.016V50.394h-5.704zm34.827 10.736v3.582h-14.387v-17.9h14.387v3.582h-10.383v3.571h8.148v3.583h-8.148v3.57l10.383.012zm13.724-1.022h-4.656v4.593h-4.016V46.812h8.684c4.528 0 7.507 2.95 7.507 6.648 0 3.697-2.991 6.648-7.519 6.648zm0-9.714h-4.656v6.143h4.656a3.143 3.143 0 002.424-.775 3.074 3.074 0 001.037-2.296 3.075 3.075 0 00-1.037-2.296 3.172 3.172 0 00-2.424-.775zm-55.663 8.486a5.673 5.673 0 01-2.075 2.187 5.786 5.786 0 01-2.918.832 6.27 6.27 0 01-4.107-1.95 6.107 6.107 0 01-1.666-4.187c0-1.552.595-3.048 1.666-4.186a6.27 6.27 0 014.107-1.95 5.794 5.794 0 012.938.847 5.695 5.695 0 012.079 2.218h4.202a9.74 9.74 0 00-4.253-5.226 9.96 9.96 0 00-6.671-1.266 9.884 9.884 0 00-5.915 3.296 9.64 9.64 0 00-2.343 6.29 9.64 9.64 0 002.343 6.29 9.884 9.884 0 005.915 3.297 9.96 9.96 0 006.671-1.266 9.74 9.74 0 004.253-5.226h-4.226z" fill="#000"/><path d="M84.948 32.953H70.852v4.042h14.096v-4.042zm0 13.859H70.852v4.042h14.096v-4.042zm0 13.848H70.852v4.04h14.096v-4.04zm0-41.554H70.852v4.042h14.096v-4.042zM14.096 32.953H0v4.042h14.096v-4.042zm0 13.859H0v4.042h14.096v-4.042zm0 13.848H0v4.04h14.096v-4.04zm0-41.554H0v4.042h14.096v-4.042zm37.421 50.75H47.42v13.916h4.097V69.856zm-14.049 0h-4.097v13.916h4.097V69.856zm28.088 0H61.46v13.916h4.097V69.856zM51.517 0H47.42v13.905h4.097V0zM37.468 0h-4.097v13.905h4.097V0zM23.431 0h-4.097v13.905h4.097V0zm42.125 0H61.46v13.905h4.097V0z" fill="#E30000"/><path d="M19.334 19.072v64.551h4.027V64.666h42.195V19.072H19.334zm39.343 3.984L42.439 39.039 26.213 22.964l32.464.092zM23.36 60.694V25.869l19.078 18.83 19.078-18.83v34.825H23.36z" fill="#000"/></g><defs><clipPath id="clip0"><path fill="#fff" d="M0 0h226v86H0z"/></clipPath></defs></svg>