<svg width="19" height="14" viewBox="0 0 19 14" fill="none" xmlns="http://www.w3.org/2000/svg">
<path d="M18.1484 4.96484C18.2188 4.89453 18.2891 4.88281 18.3594 4.92969C18.4531 4.97656 18.5 5.04688 18.5 5.14062V12.3125C18.5 12.7812 18.3359 13.1797 18.0078 13.5078C17.6797 13.8359 17.2812 14 16.8125 14H2.1875C1.71875 14 1.32031 13.8359 0.992188 13.5078C0.664062 13.1797 0.5 12.7812 0.5 12.3125V5.14062C0.5 5.04688 0.535156 4.98828 0.605469 4.96484C0.699219 4.91797 0.78125 4.91797 0.851562 4.96484C1.625 5.55078 3.42969 6.875 6.26562 8.9375C6.3125 8.98438 6.46484 9.11328 6.72266 9.32422C7.00391 9.53516 7.22656 9.69922 7.39062 9.81641C7.55469 9.91016 7.76562 10.0391 8.02344 10.2031C8.28125 10.3438 8.52734 10.4492 8.76172 10.5195C9.01953 10.5898 9.26562 10.625 9.5 10.625C9.71094 10.625 9.92188 10.6016 10.1328 10.5547C10.3438 10.4844 10.543 10.4141 10.7305 10.3438C10.918 10.25 11.1172 10.1328 11.3281 9.99219C11.5391 9.85156 11.7148 9.73438 11.8555 9.64062C11.9961 9.52344 12.1602 9.39453 12.3477 9.25391C12.5352 9.11328 12.6641 9.00781 12.7344 8.9375C15.5 6.94531 17.3047 5.62109 18.1484 4.96484ZM9.5 9.5C9.3125 9.5 9.07812 9.44141 8.79688 9.32422C8.53906 9.18359 8.32812 9.06641 8.16406 8.97266C8 8.85547 7.75391 8.67969 7.42578 8.44531C7.12109 8.1875 6.95703 8.05859 6.93359 8.05859C4.07422 5.97266 2.03516 4.46094 0.816406 3.52344C0.605469 3.35937 0.5 3.13672 0.5 2.85547V2.1875C0.5 1.71875 0.664062 1.32031 0.992188 0.992188C1.32031 0.664063 1.71875 0.5 2.1875 0.5H16.8125C17.2812 0.5 17.6797 0.664063 18.0078 0.992188C18.3359 1.32031 18.5 1.71875 18.5 2.1875V2.85547C18.5 3.13672 18.3945 3.35937 18.1836 3.52344C17.0352 4.41406 14.9961 5.92578 12.0664 8.05859C12.043 8.05859 11.8672 8.1875 11.5391 8.44531C11.2344 8.67969 11 8.85547 10.8359 8.97266C10.6719 9.06641 10.4492 9.18359 10.168 9.32422C9.91016 9.44141 9.6875 9.5 9.5 9.5Z" fill="#E30000"/>
</svg>
