<svg width="19" height="19" viewBox="0 0 19 19" fill="none" xmlns="http://www.w3.org/2000/svg">
<path d="M17.3667 1.12879C17.812 1.22254 18.0347 1.49207 18.0347 1.93738C18.0347 6.43738 16.4409 10.2811 13.2534 13.4686C10.0659 16.6561 6.22217 18.2499 1.72217 18.2499C1.27686 18.2499 1.00732 18.0272 0.913574 17.5819L0.0698242 13.9257C-0.0473633 13.4804 0.116699 13.1639 0.562012 12.9764L4.49951 11.2889C4.87451 11.1249 5.20264 11.2069 5.48389 11.535L7.20654 13.6444C8.58936 13.0116 9.80811 12.1561 10.8628 11.078C11.9409 9.99988 12.7964 8.78113 13.4292 7.42176L11.3198 5.66395C10.9917 5.40613 10.9097 5.07801 11.0737 4.67957L12.7612 0.742071C12.9487 0.320196 13.2651 0.167852 13.7104 0.285039L17.3667 1.12879Z" fill="#E30000"/>
</svg>
