<svg width="19" height="19" fill="none" xmlns="http://www.w3.org/2000/svg"><path d="M17.8 15.824a.814.814 0 01.247.598.814.814 0 01-.246.598l-.985.984a.814.814 0 01-.597.246.814.814 0 01-.598-.246l-3.516-3.516a.814.814 0 01-.246-.597v-.563c-1.312 1.031-2.812 1.547-4.5 1.547-2.015 0-3.738-.715-5.168-2.145C.761 11.3.047 9.578.047 7.562c0-2.015.715-3.738 2.144-5.167C3.621.965 5.344.25 7.36.25c2.016 0 3.739.715 5.168 2.145 1.43 1.43 2.145 3.152 2.145 5.168 0 1.687-.516 3.187-1.547 4.5h.563c.234 0 .433.082.597.246l3.516 3.515zM4.16 10.762c.89.867 1.957 1.3 3.2 1.3 1.242 0 2.296-.433 3.163-1.3.891-.89 1.336-1.957 1.336-3.2 0-1.242-.445-2.296-1.336-3.164-.867-.89-1.921-1.335-3.164-1.335-1.242 0-2.308.445-3.199 1.335-.867.868-1.3 1.922-1.3 3.165 0 1.242.433 2.308 1.3 3.199z" fill="#000"/></svg>