<svg width="76" height="14" viewBox="0 0 76 14" fill="none" xmlns="http://www.w3.org/2000/svg">
<path d="M1.61103 8.27505C0.88961 8.27505 0.304688 7.70438 0.304688 7.00052C0.304688 6.29666 0.88961 5.72599 1.61103 5.72599V8.27505ZM17.413 8.27505H1.61103V5.72599H17.413L18.544 7.63836L17.413 8.27505ZM17.413 5.72599C18.1345 5.72599 18.7194 6.29666 18.7194 7.00052C18.7194 7.70438 18.1345 8.27505 17.413 8.27505V5.72599ZM21.936 1.91305L18.544 7.63836L16.2821 6.36268L19.674 0.637371H21.936V1.91305ZM19.674 0.637371C20.0351 0.0280184 20.8342 -0.180431 21.4588 0.171785C22.0834 0.524001 22.297 1.30369 21.936 1.91305L19.674 0.637371ZM26.4581 13.3637L19.674 1.91305L21.936 0.637371L28.72 12.088V13.3637H26.4581ZM28.72 12.088C29.0811 12.6973 28.8674 13.477 28.2428 13.8293C27.6182 14.1815 26.8191 13.973 26.4581 13.3637L28.72 12.088ZM35.504 1.91305L28.72 13.3637L26.4581 12.088L33.2421 0.637371H35.504V1.91305ZM33.2421 0.637371C33.6031 0.0280184 34.4022 -0.180431 35.0268 0.171785C35.6514 0.524001 35.8651 1.30369 35.504 1.91305L33.2421 0.637371ZM40.0261 13.3637L33.2421 1.91305L35.504 0.637371L42.2881 12.088V13.3637H40.0261ZM42.2881 12.088C42.6491 12.6973 42.4354 13.477 41.8109 13.8293C41.1863 14.1815 40.3871 13.973 40.0261 13.3637L42.2881 12.088ZM49.0721 1.91305L42.2881 13.3637L40.0261 12.088L46.8101 0.637371H49.0721V1.91305ZM46.8101 0.637371C47.1711 0.0280184 47.9703 -0.180431 48.5948 0.171785C49.2194 0.524001 49.4331 1.30369 49.0721 1.91305L46.8101 0.637371ZM53.5941 13.3637L46.8101 1.91305L49.0721 0.637371L55.856 12.088V13.3637H53.5941ZM55.856 12.088C56.2171 12.6973 56.0034 13.477 55.3788 13.8293C54.7542 14.1815 53.9551 13.973 53.5941 13.3637L55.856 12.088ZM59.2481 7.63836L55.856 13.3637L53.5941 12.088L56.9861 6.36268L58.1171 5.72599L59.2481 7.63836ZM56.9861 6.36268C57.3471 5.75333 58.1463 5.54488 58.7708 5.89709C59.3954 6.24931 59.6091 7.029 59.2481 7.63836L56.9861 6.36268ZM74.5855 8.27505H58.1171V5.72599H74.5855V8.27505ZM74.5855 5.72599C75.3069 5.72599 75.8919 6.29666 75.8919 7.00052C75.8919 7.70438 75.3069 8.27505 74.5855 8.27505V5.72599Z" fill="#FFFFFF"/>
</svg>
