<svg width="25" height="20" viewBox="0 0 25 20" fill="none" xmlns="http://www.w3.org/2000/svg">
<path d="M24.8828 6.29297L24.1367 5.54297C23.9805 5.38281 23.7227 5.38281 23.5664 5.54297L19.5391 9.59375L17.6875 7.73047C17.5312 7.57031 17.2734 7.57031 17.1172 7.73047L16.3672 8.48047C16.2109 8.64063 16.2109 8.89453 16.3672 9.05469L19.25 11.957C19.4062 12.1172 19.6641 12.1172 19.8203 11.957L24.8828 6.86719C25.0391 6.71094 25.0391 6.45313 24.8828 6.29297V6.29297ZM8.75 11.25C11.8555 11.25 14.375 8.73047 14.375 5.625C14.375 2.51953 11.8555 0 8.75 0C5.64453 0 3.125 2.51953 3.125 5.625C3.125 8.73047 5.64453 11.25 8.75 11.25ZM8.75 1.875C10.8164 1.875 12.5 3.55859 12.5 5.625C12.5 7.69141 10.8164 9.375 8.75 9.375C6.68359 9.375 5 7.69141 5 5.625C5 3.55859 6.68359 1.875 8.75 1.875ZM12.25 11.875C11.125 11.875 10.5938 12.5 8.75 12.5C6.91016 12.5 6.375 11.875 5.25 11.875C2.35156 11.875 0 14.2266 0 17.125V18.125C0 19.1602 0.839844 20 1.875 20H15.625C16.6602 20 17.5 19.1602 17.5 18.125V17.125C17.5 14.2266 15.1484 11.875 12.25 11.875ZM15.625 18.125H1.875V17.125C1.875 15.2656 3.39062 13.75 5.25 13.75C5.82031 13.75 6.74609 14.375 8.75 14.375C10.7695 14.375 11.6758 13.75 12.25 13.75C14.1094 13.75 15.625 15.2656 15.625 17.125V18.125Z" fill="black"/>
</svg>
