<svg width="18" height="21" fill="none" xmlns="http://www.w3.org/2000/svg"><path d="M12.563 12.375c1.432 0 2.656.52 3.671 1.563 1.042 1.015 1.563 2.24 1.563 3.671v1.016c0 .52-.182.963-.547 1.328a1.808 1.808 0 01-1.328.547H2.172c-.521 0-.964-.182-1.328-.547a1.808 1.808 0 01-.547-1.328v-1.016c0-1.432.508-2.656 1.523-3.672 1.042-1.041 2.279-1.562 3.711-1.562.339 0 .834.104 1.485.313a6.876 6.876 0 002.03.312c.678 0 1.355-.104 2.032-.313.677-.208 1.172-.312 1.485-.312zm3.359 6.25v-1.016c0-.911-.339-1.692-1.016-2.343-.65-.678-1.432-1.016-2.344-1.016-.078 0-.494.104-1.25.313a8.208 8.208 0 01-2.265.312 8.63 8.63 0 01-2.305-.313c-.729-.208-1.133-.312-1.21-.312-.912 0-1.706.338-2.384 1.016-.65.65-.976 1.432-.976 2.343v1.016h13.75zm-2.89-8.516c-1.095 1.094-2.423 1.641-3.985 1.641-1.563 0-2.89-.547-3.985-1.64-1.093-1.094-1.64-2.422-1.64-3.985 0-1.563.547-2.89 1.64-3.984C6.157 1.047 7.485.5 9.047.5c1.562 0 2.89.547 3.984 1.64 1.094 1.094 1.64 2.422 1.64 3.985 0 1.563-.546 2.89-1.64 3.984zm-1.329-6.64c-.729-.73-1.614-1.094-2.656-1.094S7.12 2.74 6.39 3.469c-.73.729-1.094 1.614-1.094 2.656S5.66 8.052 6.39 8.781c.729.73 1.614 1.094 2.656 1.094 1.041 0 1.927-.365 2.656-1.094.73-.729 1.094-1.614 1.094-2.656s-.365-1.927-1.094-2.656z" fill="#000"/></svg>