<svg width="18" height="18" viewBox="0 0 18 18" fill="none" xmlns="http://www.w3.org/2000/svg">
<path d="M13.5962 5.81803L10.4142 9.00001L13.5962 12.182C13.7915 12.3773 13.7915 12.6938 13.5962 12.8891L12.8891 13.5962C12.6937 13.7915 12.3773 13.7915 12.182 13.5962L9 10.4142L5.81802 13.5962C5.62268 13.7915 5.30625 13.7915 5.11091 13.5962L4.40381 12.8891C4.20847 12.6938 4.20847 12.3773 4.40381 12.182L7.58579 9.00001L4.40381 5.81803C4.20847 5.62269 4.20847 5.30626 4.40381 5.11092L5.11091 4.40381C5.30625 4.20848 5.62268 4.20848 5.81802 4.40381L9 7.5858L12.182 4.40381C12.3773 4.20848 12.6937 4.20848 12.8891 4.40381L13.5962 5.11092C13.7915 5.30626 13.7915 5.62269 13.5962 5.81803Z" fill="#E30000"/>
</svg>
